# xmcd CD database file
#
# Track frame offsets:
#	150
#	15757
#	29638
#	47617
#	62698
#	78549
#	88818
#	103361
#	125617
#	146008
#	158912
#
# Disc length: 2332 seconds
#
# Revision: 0
# Processed by: cddbd v1.5PL3 Copyright (c) Steve Scherf et al.
# Submitted via: CDex 1.51
#
DISCID=92091a0b
DTITLE=Byron Walls - Calm Cool and Collected
DYEAR=2002
DGENRE=Jazz
TTITLE0=Calm, Cool, and Collected
TTITLE1=Louis
TTITLE2=Things Change
TTITLE3=The World's a Tuxedo
TTITLE4=A Piece of Me
TTITLE5=Next to You
TTITLE6=Holiday Inn in the Andes
TTITLE7=When I Found You
TTITLE8=Easier Dreamed Than Done
TTITLE9=The Poem
TTITLE10=Jump Off the Edge and Fly
EXTD=YEAR: 2002
EXTT0=
EXTT1=
EXTT2=
EXTT3=
EXTT4=
EXTT5=
EXTT6=
EXTT7=
EXTT8=
EXTT9=
EXTT10=
PLAYORDER=
